<svg width="453" height="91" viewBox="0 0 453 91" fill="none" xmlns="http://www.w3.org/2000/svg">
<g clip-path="url(#clip0_417_42755)">
<path d="M45.2814 54.6085L66.4129 77.3302L90.577 54.5802L45.2814 0L0 54.5802L24.1501 77.3302L45.2814 54.6085Z" fill="white"/>
<path d="M24.1484 91.0001H45.3927H66.4113L45.2798 66.7061L24.1484 91.0001Z" fill="white"/>
<path d="M155.89 29.2363C159.191 29.2363 162.167 29.5338 164.848 30.1146C167.528 30.6954 169.827 31.6303 171.746 32.9052C173.664 34.1801 175.145 35.8375 176.175 37.8774C177.205 39.9172 177.713 42.4104 177.713 45.371C177.713 49.9181 176.373 53.4029 173.692 55.8252C171.012 58.2334 167.401 59.8624 162.873 60.684L176.57 80.3459C177.049 81.04 177.614 81.4508 178.277 81.5925C178.926 81.7341 179.532 81.805 180.082 81.805V83.6748H160.813V81.805C161.434 81.805 161.956 81.7058 162.407 81.4933C162.859 81.2809 163.084 81.0117 163.084 80.6717C163.084 80.3318 162.943 79.9351 162.675 79.4818C162.407 79.0285 161.984 78.4336 161.434 77.6686L150.106 61.534H135.379V79.9493C135.379 80.5726 135.605 81.04 136.042 81.3517C136.494 81.6633 137.298 81.8191 138.469 81.8191V83.689H120.652V81.8191C122.641 81.8191 123.643 81.1959 123.643 79.9635V32.9902C123.643 31.7436 122.641 31.1204 120.652 31.1204V29.2647H155.89V29.2363ZM153.21 53.4454C155.678 53.4454 157.738 53.2612 159.388 52.8788C161.039 52.4963 162.337 51.9722 163.31 51.278C164.269 50.5839 164.96 49.7765 165.369 48.8416C165.779 47.9066 165.99 46.9009 165.99 45.796C165.99 44.691 165.779 43.6711 165.369 42.7503C164.96 41.8154 164.269 41.008 163.31 40.3138C162.351 39.6197 161.039 39.0956 159.388 38.7131C157.738 38.3307 155.678 38.1465 153.21 38.1465H135.393V53.4595H153.21V53.4454Z" fill="white"/>
<path d="M221.33 29.2363C225.04 29.2363 228.82 29.8029 232.671 30.9079C236.522 32.0269 240.035 33.7127 243.209 35.9367C246.383 38.1748 248.978 41.008 251.01 44.436C253.041 47.8641 254.043 51.9155 254.043 56.5902C254.043 61.2648 253.027 65.3162 251.01 68.7443C248.978 72.1724 246.383 75.0055 243.209 77.2437C240.035 79.4818 236.522 81.1109 232.671 82.1308C228.82 83.1507 225.04 83.6607 221.33 83.6607C217.62 83.6607 213.84 83.1507 209.989 82.1308C206.138 81.1109 202.625 79.4818 199.451 77.2437C196.277 75.0055 193.682 72.1724 191.65 68.7443C189.619 65.3162 188.617 61.2648 188.617 56.5902C188.617 51.9155 189.633 47.8641 191.65 44.436C193.682 41.008 196.277 38.1748 199.451 35.9367C202.625 33.6985 206.138 32.0269 209.989 30.9079C213.84 29.7888 217.62 29.2363 221.33 29.2363ZM221.33 38.5998C218.762 38.5998 216.195 39.0106 213.628 39.8181C211.06 40.6255 208.747 41.8012 206.688 43.3311C204.628 44.861 202.949 46.7451 201.68 48.9832C200.396 51.2214 199.761 53.757 199.761 56.6185C199.761 59.48 200.396 62.0014 201.68 64.2538C202.963 66.4919 204.628 68.376 206.688 69.9058C208.747 71.4357 211.06 72.5973 213.628 73.4189C216.195 74.2264 218.762 74.6372 221.33 74.6372C223.897 74.6372 226.465 74.2264 229.032 73.4189C231.6 72.6115 233.913 71.4357 235.972 69.9058C238.032 68.376 239.697 66.4919 240.98 64.2538C242.264 62.0156 242.898 59.4658 242.898 56.6185C242.898 53.7712 242.25 51.2214 240.98 48.9832C239.697 46.7451 238.032 44.861 235.972 43.3311C233.913 41.8012 231.6 40.6397 229.032 39.8181C226.465 39.0106 223.897 38.5998 221.33 38.5998Z" fill="white"/>
<path d="M296.08 29.2363C299.79 29.2363 303.57 29.8029 307.421 30.9079C311.272 32.0269 314.785 33.7127 317.959 35.9367C321.133 38.1748 323.728 41.008 325.76 44.436C327.791 47.8641 328.793 51.9155 328.793 56.5902C328.793 61.2648 327.777 65.3162 325.76 68.7443C323.728 72.1724 321.133 75.0055 317.959 77.2437C314.785 79.4818 311.272 81.1109 307.421 82.1308C303.57 83.1507 299.79 83.6607 296.08 83.6607C292.37 83.6607 288.59 83.1507 284.739 82.1308C280.888 81.1109 277.375 79.4818 274.201 77.2437C271.027 75.0055 268.432 72.1724 266.4 68.7443C264.369 65.3162 263.367 61.2648 263.367 56.5902C263.367 51.9155 264.383 47.8641 266.4 44.436C268.432 41.008 271.027 38.1748 274.201 35.9367C277.375 33.6985 280.888 32.0269 284.739 30.9079C288.59 29.7888 292.37 29.2363 296.08 29.2363ZM296.08 38.5998C293.513 38.5998 290.945 39.0106 288.378 39.8181C285.81 40.6255 283.497 41.8012 281.438 43.3311C279.378 44.861 277.699 46.7451 276.43 48.9832C275.146 51.2214 274.511 53.757 274.511 56.6185C274.511 59.48 275.146 62.0014 276.43 64.2538C277.713 66.4919 279.378 68.376 281.438 69.9058C283.497 71.4357 285.81 72.5973 288.378 73.4189C290.945 74.2264 293.513 74.6372 296.08 74.6372C298.647 74.6372 301.215 74.2264 303.782 73.4189C306.35 72.6115 308.663 71.4357 310.722 69.9058C312.782 68.376 314.447 66.4919 315.73 64.2538C317.014 62.0156 317.648 59.4658 317.648 56.6185C317.648 53.7712 317 51.2214 315.73 48.9832C314.447 46.7451 312.782 44.861 310.722 43.3311C308.663 41.8012 306.35 40.6397 303.782 39.8181C301.215 39.0106 298.647 38.5998 296.08 38.5998Z" fill="white"/>
<path d="M369.968 79.921C369.968 81.1675 370.716 81.7766 372.24 81.7766V83.6465H356.37V81.7766C356.85 81.7766 357.273 81.6208 357.654 81.3092C358.035 80.9975 358.218 80.5301 358.218 79.9068V38.7273H341.22C340.599 38.7273 340.007 38.8973 339.414 39.2514C338.822 39.5914 338.539 40.243 338.539 41.2204H336.691V26.7432H338.539C338.539 27.7064 338.836 28.358 339.414 28.7122C339.993 29.0522 340.599 29.2363 341.22 29.2363H386.967C387.587 29.2363 388.18 29.0663 388.772 28.7122C389.351 28.3722 389.647 27.7206 389.647 26.7432H391.495V41.2204H389.647C389.647 40.2572 389.351 39.6056 388.772 39.2514C388.194 38.8973 387.587 38.7273 386.967 38.7273H369.968V79.9068V79.921Z" fill="white"/>
<path d="M404.487 66.5767L405.517 67.1008C405.517 67.7241 405.658 68.2766 405.926 68.7582C406.406 69.5798 407.351 70.4014 408.761 71.1947C410.172 71.9879 411.78 72.6962 413.6 73.3195C415.42 73.9428 417.324 74.4386 419.313 74.8211C421.302 75.2035 423.094 75.3877 424.674 75.3877C425.844 75.3877 427.354 75.3027 429.202 75.1327C431.05 74.9627 432.869 74.5944 434.661 74.042C436.452 73.4895 437.99 72.7246 439.302 71.7613C440.599 70.798 441.263 69.5231 441.263 67.9366C441.263 66.35 440.656 65.1743 439.457 64.4235C438.258 63.6727 436.678 63.1203 434.717 62.7661C432.756 62.4262 430.527 62.1995 428.017 62.0862C425.506 61.987 422.952 61.8312 420.343 61.6187C417.733 61.4062 415.166 61.0662 412.669 60.5846C410.158 60.103 407.929 59.2956 405.968 58.1481C404.008 57.0149 402.428 55.4567 401.229 53.4876C400.029 51.5186 399.423 48.9546 399.423 45.7815C399.423 43.6425 399.917 41.5319 400.918 39.4637C401.906 37.3955 403.443 35.5681 405.503 33.9816C407.562 32.395 410.172 31.1059 413.332 30.1002C416.492 29.0944 420.202 28.5986 424.462 28.5986C428.101 28.5986 431.261 28.8678 433.941 29.4202C436.622 29.9727 438.935 30.5535 440.896 31.1768C442.857 31.8001 444.507 32.3809 445.833 32.9333C447.173 33.4858 448.287 33.7549 449.176 33.7549C450.135 33.7549 450.827 33.5566 451.236 33.1316L452.477 33.9532L445.367 46.8864L444.338 46.4757C444.197 45.5124 443.929 44.7191 443.505 44.0958C442.955 43.2742 442.052 42.4526 440.769 41.6593C439.499 40.8661 438.004 40.1578 436.283 39.5345C434.562 38.9112 432.714 38.4154 430.725 38.0329C428.736 37.6505 426.747 37.4663 424.744 37.4663C423.235 37.4663 421.669 37.5796 420.061 37.8346C418.453 38.0754 416.985 38.4437 415.688 38.9254C414.376 39.407 413.304 40.0445 412.443 40.8377C411.583 41.631 411.159 42.6084 411.159 43.7842C411.159 45.4416 411.766 46.674 412.965 47.5097C414.164 48.3313 415.744 48.9546 417.705 49.3654C419.666 49.7762 421.895 50.0596 424.406 50.187C426.917 50.3287 429.47 50.4987 432.079 50.697C434.689 50.9095 437.242 51.2636 439.753 51.7878C442.264 52.3119 444.493 53.1335 446.454 54.2668C448.414 55.4 449.995 56.9441 451.194 58.8706C452.393 60.7971 452.999 63.3186 452.999 66.4209C452.999 70.0048 452.054 72.937 450.164 75.2177C448.274 77.4984 445.918 79.2832 443.111 80.6007C440.289 81.9181 437.256 82.7963 433.998 83.2355C430.739 83.6888 427.692 83.9154 424.885 83.9154C420.963 83.9154 417.691 83.6888 415.039 83.2355C412.401 82.7822 410.2 82.2297 408.451 81.5781C406.702 80.9265 405.306 80.3315 404.276 79.8215C403.246 79.3116 402.357 79.0424 401.595 79.0424C401.116 79.0424 400.664 79.3116 400.255 79.864L398.816 79.0424L404.487 66.52V66.5767Z" fill="white"/>
<path d="M182.92 9.90105H177.799V14.9299H176.078V3.10156H182.92C185.007 3.10156 186.362 4.3623 186.362 6.48715C186.362 8.61199 184.993 9.91523 182.92 9.91523M182.92 4.84393H177.799V8.17284H182.92C184.02 8.17284 184.655 7.63456 184.655 6.48715C184.655 5.33973 184.048 4.84393 182.92 4.84393Z" fill="white"/>
<path d="M194.021 15.2128C190.452 15.2128 187.688 12.408 187.688 8.83827C187.688 5.26854 190.65 2.74707 194.035 2.74707C197.421 2.74707 200.369 5.49518 200.369 9.03659C200.369 12.578 197.435 15.227 194.021 15.227M194.021 4.50359C191.397 4.50359 189.38 6.38763 189.38 9.05077C189.38 11.7139 191.581 13.4704 194.035 13.4704C196.49 13.4704 198.662 11.5014 198.662 8.93744C198.662 6.37347 196.532 4.48944 194.021 4.48944" fill="white"/>
<path d="M211.174 14.9299L207.535 8.48449L204.445 11.7709V14.9299H202.738V3.10156H204.445V9.29194L210.257 3.10156H212.641L208.748 7.20959L213.163 14.9299H211.174Z" fill="white"/>
<path d="M215.902 14.9299V3.10156H225.593V4.84393H217.623V7.93203H221.63V9.64608H217.623V13.2016H225.904V14.9299H215.902Z" fill="white"/>
<path d="M236.638 9.95725L239.092 14.9294H237.146L234.776 10.0281H230.389V14.9294H228.668V3.08691H235.651C237.795 3.08691 239.36 4.33349 239.36 6.58583C239.36 8.38486 238.345 9.54645 236.638 9.95725ZM235.636 4.80096H230.375V8.2857H235.636C236.807 8.2857 237.639 7.73324 237.639 6.4725C237.639 5.21176 236.751 4.78679 235.636 4.78679" fill="white"/>
<path d="M250.347 4.81512V8.08738H255.172V9.85808H250.347V14.9294H248.641V3.08691H258.29V4.81512H250.347Z" fill="white"/>
<path d="M265.357 15.2128C261.788 15.2128 259.023 12.408 259.023 8.83827C259.023 5.26854 261.986 2.74707 265.371 2.74707C268.757 2.74707 271.705 5.49518 271.705 9.03659C271.705 12.578 268.771 15.227 265.357 15.227M265.357 4.50359C262.733 4.50359 260.716 6.38763 260.716 9.05077C260.716 11.7139 262.903 13.4704 265.371 13.4704C267.84 13.4704 269.998 11.5014 269.998 8.93744C269.998 6.37347 267.868 4.48944 265.357 4.48944" fill="white"/>
<path d="M282.314 9.95725L284.769 14.9294H282.822L280.452 10.0281H276.065V14.9294H274.344V3.08691H281.326C283.471 3.08691 285.036 4.33349 285.036 6.58583C285.036 8.38486 284.021 9.54645 282.314 9.95725ZM281.312 4.80096H276.051V8.2857H281.312C282.483 8.2857 283.316 7.73324 283.316 6.4725C283.316 5.21176 282.427 4.78679 281.312 4.78679" fill="white"/>
<path d="M294.277 14.9299V3.10156H303.982V4.84393H295.998V7.93203H300.018V9.64608H295.998V13.2016H304.279V14.9299H294.277Z" fill="white"/>
<path d="M312.883 14.9299H310.852L305.66 3.10156H307.522L311.867 12.9892L316.254 3.10156H318.144L312.883 14.9299Z" fill="white"/>
<path d="M320.258 14.9299V3.10156H329.949V4.84393H321.979V7.93203H325.985V9.64608H321.979V13.2016H330.259V14.9299H320.258Z" fill="white"/>
<path d="M340.997 9.95725L343.452 14.9294H341.505L339.135 10.0281H334.748V14.9294H333.027V3.08691H340.01C342.154 3.08691 343.72 4.33349 343.72 6.58583C343.72 8.38486 342.704 9.54645 340.997 9.95725ZM339.996 4.80096H334.734V8.2857H339.996C341.167 8.2857 341.999 7.73324 341.999 6.4725C341.999 5.21176 341.11 4.78679 339.996 4.78679" fill="white"/>
<path d="M351.602 9.8019V14.9299H349.896V9.8019L345.113 3.10156H347.173L350.784 8.10203L354.339 3.10156H356.469L351.602 9.8019Z" fill="white"/>
<path d="M363.65 15.2128C360.081 15.2128 357.316 12.408 357.316 8.83827C357.316 5.26854 360.279 2.74707 363.664 2.74707C367.05 2.74707 369.998 5.49518 369.998 9.03659C369.998 12.578 367.064 15.227 363.65 15.227M363.65 4.50359C361.026 4.50359 359.009 6.38763 359.009 9.05077C359.009 11.7139 361.21 13.4704 363.664 13.4704C366.119 13.4704 368.291 11.5014 368.291 8.93744C368.291 6.37347 366.161 4.48944 363.65 4.48944" fill="white"/>
<path d="M381.806 14.9299L374.697 5.92051V14.9299H373.004V3.10156H374.683L381.764 12.1392V3.10156H383.513V14.9299H381.806Z" fill="white"/>
<path d="M387.574 14.9299V3.10156H397.28V4.84393H389.295V7.93203H393.316V9.64608H389.295V13.2016H397.576V14.9299H387.574Z" fill="white"/>
</g>
<defs>
<clipPath id="clip0_417_42755">
<rect width="453" height="91" fill="white"/>
</clipPath>
</defs>
</svg>
